<?xml version="1.0" encoding="UTF-8" standalone="no"?><!-- Generator: Gravit.io --><svg xmlns="http://www.w3.org/2000/svg" xmlns:xlink="http://www.w3.org/1999/xlink" style="isolation:isolate" viewBox="0 0 40 60" width="40pt" height="60pt"><defs><clipPath id="_clipPath_f9dRSduBWWU6ZvKUF2sjeI9zM3cKzwKt"><rect width="40" height="60"/></clipPath></defs><g clip-path="url(#_clipPath_f9dRSduBWWU6ZvKUF2sjeI9zM3cKzwKt)"><path d=" M 22.152 26.998 L 20.396 33.179 L 27.907 33.179 L 27.466 34.685 C 27.087 35.834 26.773 37.063 26.163 38.119 C 25.056 40.086 22.975 40.766 20.825 40.725 C 15.118 40.759 12.057 37.242 11.974 32.004 C 11.731 22.673 20.979 15.884 29.925 21.414 L 35.634 15.135 C 28.936 9.277 9.593 8.508 3.74 24.662 C -0.536 36.03 3.841 46.676 16.509 48.513 C 22.774 49.365 32.048 47.298 33.829 41.019 C 36.481 31.673 37.85 26.998 37.85 26.998 L 22.152 26.998 Z " fill="rgb(255,255,255)"/></g></svg>