<?xml version="1.0" encoding="UTF-8" standalone="no"?><!-- Generator: Gravit.io --><svg xmlns="http://www.w3.org/2000/svg" xmlns:xlink="http://www.w3.org/1999/xlink" style="isolation:isolate" viewBox="0 0 40 60" width="40pt" height="60pt"><defs><clipPath id="_clipPath_0ccjCZlK3iqJGF3Gyf8hRJydzQXXjj1G"><rect width="40" height="60"/></clipPath></defs><g clip-path="url(#_clipPath_0ccjCZlK3iqJGF3Gyf8hRJydzQXXjj1G)"><g><path d=" M 19.702 5.237 C 14.841 6.022 13.01 6.611 11.309 7.962 C 10.198 8.834 9.239 10.338 8.628 12.104 C 8.171 13.499 8.149 13.673 8.083 29.716 C 8.04 40.114 8.105 46.326 8.236 47.111 C 8.824 50.25 11.244 53.585 13.62 54.457 C 15.8 55.285 17.565 55.198 24.497 53.977 C 27.985 53.367 31.015 52.822 31.276 52.756 C 31.712 52.669 31.734 52.538 31.865 45.062 C 31.952 40.877 31.952 35.558 31.865 33.226 L 31.734 28.997 L 30.426 27.907 C 29.707 27.297 28.944 26.708 28.748 26.556 C 28.486 26.381 27.462 26.49 24.17 27.057 C 21.838 27.471 19.789 27.798 19.658 27.798 C 19.44 27.798 19.375 26.708 19.375 23.046 C 19.396 18.142 19.549 16.55 20.05 16.223 C 20.661 15.831 20.748 16.071 20.617 17.727 L 20.508 19.45 L 22.252 20.932 L 24.018 22.414 L 27.527 21.804 C 29.445 21.455 31.211 21.128 31.429 21.041 C 31.799 20.91 31.843 20.605 31.799 17.008 C 31.777 12.627 31.516 11.428 30.121 9.335 C 29.184 7.919 28.268 7.199 26.023 6.022 C 23.93 4.954 22.579 4.78 19.702 5.237 Z  M 24.453 5.804 C 25.609 6.109 26.851 7.308 27.462 8.681 C 27.919 9.706 27.985 10.207 28.05 13.782 C 28.137 17.466 28.115 17.727 27.723 17.836 C 27.505 17.902 26.154 18.163 24.715 18.403 C 23.276 18.665 21.881 18.905 21.62 18.97 C 21.118 19.079 21.118 19.079 21.118 16.507 C 21.118 13.521 20.879 12.605 20.072 12.387 C 19.135 12.147 16.955 12.692 16.323 13.303 L 15.778 13.848 L 15.713 28.866 C 15.669 43.231 15.669 43.885 16.061 44.364 C 16.541 44.953 17.435 44.975 19.702 44.517 L 21.009 44.234 L 21.009 39.46 C 21.009 36.386 20.922 34.686 20.791 34.708 C 20.682 34.708 20.007 34.795 19.331 34.882 L 18.067 35.035 L 18.067 31.874 C 18.067 29.041 18.11 28.692 18.459 28.583 C 18.851 28.474 27.658 26.926 27.941 26.926 C 28.028 26.926 28.094 32.005 28.094 38.217 L 28.094 49.509 L 21.598 50.642 C 18.023 51.274 14.623 51.776 14.012 51.776 C 10.895 51.776 9.086 49.901 8.737 46.282 C 8.65 45.411 8.628 37.52 8.694 28.779 L 8.803 12.867 L 9.304 11.646 C 10.241 9.292 11.811 7.744 13.969 6.959 C 16.802 5.935 22.622 5.281 24.453 5.804 Z  M 20.464 40.92 L 20.464 43.928 L 19.92 43.928 L 19.375 43.928 L 19.375 40.55 L 19.375 37.149 L 19.92 37.542 C 20.443 37.934 20.443 37.999 20.464 40.92 Z " fill="rgb(255,255,255)"/><path d=" M 17.958 7.657 C 16.41 7.94 14.688 8.333 14.165 8.529 C 12.247 9.27 10.873 11.014 10.459 13.281 C 10.132 15.112 10.132 45.454 10.459 47.002 C 10.808 48.615 11.92 49.748 13.38 50.01 C 13.991 50.119 14.71 50.184 15.015 50.119 C 19.767 49.378 26.284 48.157 26.393 47.983 C 26.481 47.852 26.568 43.492 26.568 38.305 C 26.568 29.367 26.546 28.888 26.175 28.888 C 25.957 28.888 24.41 29.128 22.731 29.433 C 21.075 29.738 19.68 29.978 19.658 29.978 C 19.527 29.978 19.593 32.964 19.702 33.073 C 19.767 33.138 20.464 33.073 21.227 32.92 L 22.644 32.659 L 22.644 39.133 L 22.644 45.607 L 19.963 46.065 C 18.481 46.326 16.999 46.544 16.672 46.544 C 15.756 46.544 14.884 45.977 14.448 45.084 C 14.056 44.299 14.034 43.514 14.034 29.433 C 14.034 13.76 14.034 13.717 15.059 12.431 C 15.691 11.602 16.977 11.036 18.808 10.752 C 20.268 10.534 20.486 10.556 21.14 10.927 C 22.295 11.581 22.644 12.54 22.644 14.872 C 22.644 15.984 22.731 16.943 22.862 17.008 C 23.058 17.117 24.148 16.965 26.11 16.55 L 26.633 16.441 L 26.502 13.564 C 26.437 11.973 26.263 10.294 26.11 9.837 C 25.522 8.093 23.8 7.047 21.62 7.112 C 21.162 7.112 19.527 7.374 17.958 7.657 Z  M 24.323 8.311 C 25.456 9.139 25.783 10.164 25.87 13.215 C 25.957 16.267 26.045 16.093 24.344 16.354 L 23.364 16.507 L 23.255 14.458 C 23.124 12.147 22.753 11.21 21.707 10.578 C 20.857 10.055 19.309 10.011 17.522 10.469 C 15.974 10.883 14.884 11.69 14.143 12.997 L 13.598 13.956 L 13.533 28.953 C 13.489 38.893 13.555 44.212 13.707 44.778 C 13.838 45.302 14.252 45.912 14.732 46.326 L 15.538 47.045 L 17.5 46.893 C 18.59 46.827 20.312 46.588 21.336 46.391 L 23.189 45.999 L 23.255 39.046 L 23.298 32.114 L 22.078 32.267 C 21.38 32.354 20.704 32.463 20.53 32.528 C 20.312 32.615 20.246 32.376 20.246 31.525 C 20.246 30.915 20.268 30.414 20.312 30.414 C 20.334 30.392 21.598 30.174 23.146 29.891 L 25.914 29.411 L 25.87 38.566 L 25.805 47.743 L 20.682 48.658 C 13.751 49.923 12.312 49.814 11.44 47.961 C 10.656 46.326 10.612 45.018 10.721 29.106 C 10.83 11.493 10.786 12.016 12.465 10.273 C 13.511 9.205 14.47 8.834 17.762 8.202 C 20.661 7.635 23.473 7.679 24.323 8.311 Z " fill="rgb(255,255,255)"/></g></g></svg>