<?xml version="1.0" encoding="UTF-8" standalone="no"?><!-- Generator: Gravit.io --><svg xmlns="http://www.w3.org/2000/svg" xmlns:xlink="http://www.w3.org/1999/xlink" style="isolation:isolate" viewBox="0 0 40 60" width="40pt" height="60pt"><defs><clipPath id="_clipPath_LPWUjzmzDn0dkFUFw2EC36S7NZdB8IPL"><rect width="40" height="60"/></clipPath></defs><g clip-path="url(#_clipPath_LPWUjzmzDn0dkFUFw2EC36S7NZdB8IPL)"><path d=" M 20.129 18.027 C 20.586 18.023 21.048 18.072 21.497 18.169 C 21.886 18.25 22.266 18.384 22.622 18.562 C 23.27 18.89 23.824 19.379 24.237 19.974 C 24.654 20.598 24.958 21.29 25.124 22.018 C 25.314 22.807 25.403 23.613 25.395 24.422 C 25.399 25.187 25.31 25.952 25.124 26.693 C 24.954 27.393 24.658 28.053 24.257 28.652 C 23.865 29.223 23.339 29.692 22.727 30.016 C 22.396 30.186 22.048 30.315 21.683 30.396 C 21.274 30.489 20.854 30.534 20.433 30.534 L 20.133 30.526 C 20.129 30.526 20.129 30.526 20.129 30.526 C 19.372 30.522 18.627 30.348 17.947 30.016 C 17.348 29.712 16.826 29.275 16.422 28.737 C 16.013 28.191 15.705 27.571 15.519 26.912 C 15.317 26.215 15.215 25.491 15.22 24.766 C 15.211 23.864 15.288 22.961 15.458 22.075 C 15.535 21.686 15.64 21.302 15.774 20.925 C 15.899 20.581 16.057 20.254 16.248 19.938 C 16.604 19.351 17.11 18.865 17.713 18.537 C 18.041 18.367 18.389 18.238 18.749 18.157 C 19.166 18.068 19.591 18.023 20.016 18.027 L 20.129 18.027 C 20.129 18.027 20.129 18.027 20.129 18.027 L 20.129 18.027 Z  M 16.94 41.992 C 16.948 42.187 17.008 42.381 17.114 42.547 C 17.263 42.802 17.462 43.028 17.692 43.219 C 18 43.465 18.36 43.644 18.745 43.741 C 19.275 43.882 19.821 43.947 20.368 43.939 C 20.793 43.939 21.214 43.915 21.635 43.862 C 21.991 43.818 22.347 43.741 22.691 43.631 C 22.995 43.538 23.282 43.405 23.553 43.239 C 23.804 43.077 24.035 42.887 24.233 42.664 C 24.435 42.429 24.61 42.17 24.747 41.891 C 24.905 41.575 25.026 41.239 25.111 40.899 C 25.213 40.495 25.285 40.082 25.326 39.665 C 25.374 39.171 25.399 38.677 25.395 38.18 C 25.395 38.18 25.395 38.18 25.395 38.18 L 25.395 36.01 C 24.399 36.901 23.254 37.617 22.011 38.123 C 21.189 38.451 20.335 38.698 19.465 38.855 C 18.425 39.042 17.369 39.135 16.312 39.131 C 15.24 39.131 14.175 39.034 13.123 38.827 C 12.156 38.641 11.213 38.35 10.306 37.965 C 8.614 37.249 7.096 36.176 5.854 34.82 C 4.64 33.476 3.705 31.91 3.098 30.206 C 2.462 28.425 2.142 26.543 2.15 24.653 C 2.138 22.763 2.397 20.881 2.915 19.064 C 3.178 18.165 3.514 17.287 3.931 16.445 C 4.34 15.611 4.838 14.818 5.409 14.081 C 6.607 12.547 8.149 11.321 9.913 10.499 C 10.897 10.046 11.933 9.706 12.997 9.491 C 14.212 9.249 15.442 9.127 16.681 9.135 C 18.611 9.139 20.509 9.597 22.23 10.471 C 23.804 11.264 25.196 12.373 26.318 13.733 L 26.322 10.001 L 37.849 10.001 L 37.849 34.537 C 37.857 35.642 37.828 36.747 37.772 37.848 C 37.719 38.88 37.606 39.904 37.428 40.92 C 37.266 41.871 37.007 42.802 36.655 43.7 C 36.315 44.566 35.853 45.384 35.287 46.121 C 34.684 46.89 33.967 47.561 33.162 48.112 C 32.223 48.743 31.203 49.245 30.13 49.605 C 29.507 49.82 28.871 49.998 28.228 50.144 C 27.507 50.31 26.775 50.443 26.042 50.54 C 24.282 50.767 22.513 50.876 20.736 50.864 C 19.409 50.868 18.085 50.803 16.762 50.67 C 15.624 50.557 14.491 50.374 13.374 50.123 C 12.411 49.909 11.464 49.622 10.541 49.265 C 9.743 48.962 8.974 48.59 8.238 48.148 C 7.598 47.768 6.995 47.319 6.441 46.817 C 5.947 46.367 5.506 45.866 5.121 45.319 C 4.429 44.336 3.984 43.202 3.814 42.017 C 3.806 41.976 3.818 41.936 3.846 41.907 C 3.871 41.875 3.911 41.859 3.952 41.859 L 16.802 41.859 C 16.838 41.859 16.871 41.871 16.899 41.895 C 16.923 41.919 16.94 41.956 16.94 41.992 L 16.94 41.992 Z " fill-rule="evenodd" fill="rgb(255,255,255)"/></g></svg>