<?xml version="1.0" encoding="UTF-8" standalone="no"?><!-- Generator: Gravit.io --><svg xmlns="http://www.w3.org/2000/svg" xmlns:xlink="http://www.w3.org/1999/xlink" style="isolation:isolate" viewBox="0 0 40 60" width="40pt" height="60pt"><defs><clipPath id="_clipPath_PBKaGM8zYT4qRk9NyB7YpSYZKgg7wXPt"><rect width="40" height="60"/></clipPath></defs><g clip-path="url(#_clipPath_PBKaGM8zYT4qRk9NyB7YpSYZKgg7wXPt)"><g><path d=" M 25.468 46.503 L 25.473 46.498 C 23.732 42.385 21.479 36.156 21.939 32.358 C 21.479 36.157 23.729 42.388 25.468 46.503 Z " fill="rgb(254,254,254)"/><path d=" M 24.416 47.369 C 24.416 47.368 24.416 47.368 24.416 47.368 C 22.648 43.313 20.021 36.438 20.514 32.358 C 20.554 31.992 20.585 31.67 20.634 31.325 C 20.585 31.67 20.552 31.992 20.512 32.358 C 20.019 36.438 22.648 43.315 24.416 47.369 Z " fill="rgb(254,254,254)"/><path d=" M 18.681 13.262 C 19.362 13.262 19.901 12.713 19.901 12.039 C 19.901 11.37 19.362 10.826 18.681 10.826 C 18.018 10.826 17.467 11.37 17.467 12.039 C 17.467 12.713 18.018 13.262 18.681 13.262 Z " fill="none"/><path d=" M 30.495 14.638 C 29.778 14.359 29.026 14.174 28.262 14.032 C 28.338 14.443 28.39 14.861 28.39 15.293 C 28.39 15.514 28.345 15.722 28.326 15.936 C 33.825 18.849 35.865 27.014 32.746 35.694 L 32.757 35.681 C 31.4 39.459 29.259 42.764 26.728 45.319 C 25.124 41.373 23.281 35.897 23.709 32.358 C 23.896 30.684 23.869 29.972 26.435 23.507 L 24.671 23.507 C 22.566 28.81 22.207 30.242 22.037 31.51 C 22.026 31.596 22.015 31.679 22.007 31.763 C 21.984 31.955 21.963 32.148 21.939 32.358 C 21.479 36.156 23.732 42.385 25.473 46.498 L 25.468 46.503 C 25.643 46.916 25.814 47.308 25.975 47.675 C 25.977 47.674 25.978 47.674 25.98 47.672 C 26.768 49.465 27.357 50.635 27.357 50.635 L 28.6 50.635 C 28.89 50.635 29.023 50.421 28.89 50.158 C 28.89 50.158 28.186 48.75 27.297 46.68 C 30.055 44.495 32.541 41.693 34.445 38.404 L 34.432 38.415 C 40.256 28.346 38.439 17.741 30.495 14.638 Z " fill="rgb(255,255,255)"/><path d=" M 17.444 50.622 C 15.981 50.888 14.525 50.893 13.124 50.588 C 5.806 48.995 2.737 39.752 6.257 29.933 L 6.255 29.944 C 8.049 24.95 11.209 20.781 14.839 18.087 C 14.754 17.891 14.705 17.678 14.639 17.474 C 11.114 19.795 7.896 23.099 5.558 27.144 L 5.563 27.134 C -0.232 37.152 1.529 47.805 9.509 50.917 C 12.77 52.19 16.565 51.984 20.307 50.635 L 17.498 50.635 C 17.478 50.635 17.464 50.623 17.444 50.622 Z " fill="rgb(255,255,255)"/><path d=" M 24.416 47.369 C 24.576 47.738 24.728 48.08 24.871 48.398 L 24.873 48.397 C 24.728 48.079 24.576 47.736 24.416 47.368 C 24.416 47.368 24.416 47.368 24.416 47.369 Z " fill="rgb(52,139,94)"/><path d=" M 18.681 10.826 C 19.362 10.826 19.901 11.37 19.901 12.039 C 19.901 12.713 19.362 13.262 18.681 13.262 C 18.018 13.262 17.467 12.713 17.467 12.039 C 17.467 11.37 18.018 10.826 18.681 10.826 Z  M 21.324 22.358 C 25.006 22.358 27.996 19.533 28.326 15.936 C 28.345 15.722 28.39 15.514 28.39 15.293 C 28.39 14.861 28.338 14.443 28.262 14.032 C 27.665 10.736 24.793 8.233 21.324 8.233 C 17.42 8.233 14.261 11.395 14.261 15.293 C 14.261 16.06 14.412 16.782 14.639 17.474 C 14.705 17.678 14.754 17.891 14.839 18.087 C 15.921 20.599 18.414 22.358 21.324 22.358 Z " fill="rgb(255,255,255)"/><path d=" M 20.512 32.358 C 20.552 31.992 20.585 31.67 20.634 31.325 C 20.766 30.423 21.032 29.343 21.953 26.847 C 22.289 25.937 22.704 24.854 23.239 23.507 L 14.761 23.507 C 14.301 23.507 14.129 23.606 13.853 23.888 C 13.853 23.888 11.121 26.92 11.034 32.434 C 10.948 37.941 17.013 50.332 17.013 50.332 C 17.132 50.53 17.27 50.606 17.444 50.622 C 17.464 50.623 17.478 50.635 17.498 50.635 L 25.923 50.635 C 25.923 50.635 25.489 49.767 24.871 48.398 C 24.728 48.08 24.576 47.738 24.416 47.369 C 22.648 43.315 20.019 36.438 20.512 32.358 Z " fill="rgb(255,255,255)"/></g></g></svg>