<?xml version="1.0" encoding="UTF-8" standalone="no"?><!-- Generator: Gravit.io --><svg xmlns="http://www.w3.org/2000/svg" xmlns:xlink="http://www.w3.org/1999/xlink" style="isolation:isolate" viewBox="0 0 40 60" width="40pt" height="60pt"><defs><clipPath id="_clipPath_MiSn0Qe7S8Cv3SxQCRJvrt13L3fy30OR"><rect width="40" height="60"/></clipPath></defs><g clip-path="url(#_clipPath_MiSn0Qe7S8Cv3SxQCRJvrt13L3fy30OR)"><path d=" M 20 5 C 11.192 5 4.026 12.057 4.026 20.726 C 4.026 24.028 5.069 27.199 7.038 29.895 L 7.464 30.475 L 15.779 42.028 C 15.779 42.028 16.795 43.661 19.007 43.661 L 20.994 43.661 C 23.208 43.661 24.219 42.028 24.219 42.028 L 32.538 30.475 L 32.959 29.895 C 34.916 27.239 35.974 24.026 35.974 20.726 C 35.974 12.057 28.808 5 20 5 Z  M 26.574 25.369 L 26.131 25.979 L 20.001 34.496 L 13.88 25.996 L 13.43 25.379 C 12.434 24.033 11.895 22.401 11.892 20.726 C 11.892 16.324 15.53 12.744 19.999 12.744 C 24.47 12.744 28.106 16.324 28.106 20.726 C 28.106 22.394 27.576 24 26.574 25.369 Z  M 15.507 50.755 L 15.507 50.723 C 15.507 48.375 17.402 46.428 19.961 46.428 C 22.524 46.428 24.403 48.342 24.403 50.692 L 24.403 50.723 C 24.403 53.055 22.506 55 19.931 55 C 17.389 55 15.506 53.088 15.506 50.755 L 15.507 50.755 Z " fill-rule="evenodd" fill="rgb(255,255,255)"/></g></svg>