<?xml version="1.0" encoding="UTF-8" standalone="no"?><!-- Generator: Gravit.io --><svg xmlns="http://www.w3.org/2000/svg" xmlns:xlink="http://www.w3.org/1999/xlink" style="isolation:isolate" viewBox="0 0 40 60" width="40pt" height="60pt"><defs><clipPath id="_clipPath_M0gqE9jRhn20wKKjiVVCEYs7O320k5JH"><rect width="40" height="60"/></clipPath></defs><g clip-path="url(#_clipPath_M0gqE9jRhn20wKKjiVVCEYs7O320k5JH)"><g><path d=" M 5.848 46.233 L 8.664 47.859 L 6.823 51.049 L 4.007 49.423 L 3.177 50.861 L 10.346 55 L 11.176 53.562 L 8.166 51.825 L 10.008 48.635 L 13.017 50.372 L 13.854 48.924 L 6.685 44.785 L 5.848 46.233 Z " fill-rule="evenodd" fill="rgb(255,255,255)"/><path d=" M 9.037 40.711 L 16.206 44.85 L 18.934 40.124 L 17.612 39.361 L 15.704 42.665 L 14.039 41.703 L 15.906 38.469 L 14.594 37.712 L 12.727 40.946 L 11.169 40.047 L 13.076 36.743 L 11.765 35.985 L 9.037 40.711 Z " fill-rule="evenodd" fill="rgb(255,255,255)"/><path d=" M 14.117 31.912 L 21.286 36.051 L 23.625 32 L 22.281 31.224 L 20.726 33.918 L 14.9 30.555 L 14.117 31.912 Z " fill-rule="evenodd" fill="rgb(255,255,255)"/><path d=" M 30.574 19.964 L 31.353 18.614 L 24.184 14.475 L 23.405 15.825 L 30.574 19.964 Z " fill-rule="evenodd" fill="rgb(255,255,255)"/><path d=" M 25.917 25.027 C 26.219 24.502 26.066 23.999 25.55 23.701 C 25.098 23.44 24.543 23.508 24.229 24.052 L 23.203 25.83 L 24.89 26.804 L 25.917 25.027 L 25.917 25.027 Z  M 22.901 23.35 C 23.17 22.884 23.005 22.4 22.543 22.133 C 22.102 21.879 21.59 21.972 21.321 22.438 L 20.323 24.167 L 21.902 25.079 L 22.901 23.35 L 22.901 23.35 Z  M 18.226 24.795 L 20.194 21.386 C 20.906 20.152 22.141 20.024 23.098 20.576 C 24.001 21.097 24.311 21.95 24.097 22.642 C 24.614 22.021 25.675 21.895 26.578 22.417 C 27.653 23.037 28.137 24.185 27.425 25.418 L 25.395 28.934 L 18.226 24.795 L 18.226 24.795 Z " fill-rule="evenodd" fill="rgb(255,255,255)"/><path d=" M 32.469 13.826 L 29.817 7.622 L 27.794 11.127 L 26.536 10.401 L 29.654 5 L 30.662 5.582 L 33.439 12.147 L 35.587 8.425 L 36.823 9.139 L 33.705 14.54 L 32.469 13.826 Z " fill-rule="evenodd" fill="rgb(255,255,255)"/></g></g></svg>