<?xml version="1.0" encoding="UTF-8" standalone="no"?><!-- Generator: Gravit.io --><svg xmlns="http://www.w3.org/2000/svg" xmlns:xlink="http://www.w3.org/1999/xlink" style="isolation:isolate" viewBox="0 0 40 60" width="40pt" height="60pt"><defs><clipPath id="_clipPath_SOJRJ9oe8tTV3SwjbAooBt6bTQqc0Bw4"><rect width="40" height="60"/></clipPath></defs><g clip-path="url(#_clipPath_SOJRJ9oe8tTV3SwjbAooBt6bTQqc0Bw4)"><g><linearGradient id="_lgradient_0" x1="0.20190004845331966" y1="0.500001749477885" x2="0.9999997451644299" y2="0.500001749477885" gradientTransform="matrix(35.656,0,0,16.501,2.15,12.413)" gradientUnits="userSpaceOnUse"><stop offset="1.25%" stop-opacity="0" style="stop-color:rgb(255,255,255)"/><stop offset="98.75%" stop-opacity="1" style="stop-color:rgb(255,255,255)"/></linearGradient><path d=" M 34.641 28.828 C 35.697 29.115 37.222 28.676 37.632 27.656 C 38.23 26.518 37.175 25.559 36.154 25.146 C 35.136 24.735 2.15 12.413 2.15 12.413 C 2.15 12.413 2.15 16.541 2.15 16.541 C 2.15 16.541 33.288 28.89 33.288 28.89 C 33.745 28.893 34.594 28.89 34.641 28.828 L 34.641 28.828 Z " fill="url(#_lgradient_0)"/><path d=" M 37.85 26.981 C 37.85 26.981 37.848 30.171 37.848 31.271 C 37.848 32.371 36.762 33.335 35.662 33.335 C 35.662 33.335 7.597 33.335 7.597 33.335 C 7.597 33.335 7.597 36.025 7.597 36.025 C 7.597 36.025 22.796 36.025 22.796 36.025 C 22.796 36.025 25.7 38.929 25.7 38.929 C 25.7 38.929 25.7 44.683 25.7 44.683 C 25.7 44.683 22.796 47.587 22.796 47.587 C 22.796 47.587 2.15 47.587 2.15 47.587 C 2.15 47.587 2.15 43.222 2.15 43.222 C 2.15 43.222 20.256 43.222 20.256 43.222 C 20.256 43.222 20.256 40.391 20.256 40.391 C 20.256 40.391 5.054 40.391 5.054 40.391 C 5.054 40.391 2.15 37.534 2.15 37.534 C 2.15 37.534 2.15 31.874 2.15 31.874 C 2.15 31.874 5.054 28.97 5.054 28.97 C 5.054 28.97 35.662 28.97 35.662 28.97 C 36.762 28.97 37.85 28.081 37.85 26.981 L 37.85 26.981 Z " fill="rgb(255,255,255)"/></g></g></svg>