<?xml version="1.0" encoding="UTF-8" standalone="no"?><!-- Generator: Gravit.io --><svg xmlns="http://www.w3.org/2000/svg" xmlns:xlink="http://www.w3.org/1999/xlink" style="isolation:isolate" viewBox="0 0 40 60" width="40pt" height="60pt"><defs><clipPath id="_clipPath_HIfuvk5P0iDPkR7vVvrHO8cZrIuY06qT"><rect width="40" height="60"/></clipPath></defs><g clip-path="url(#_clipPath_HIfuvk5P0iDPkR7vVvrHO8cZrIuY06qT)"><rect width="40" height="60" style="fill:rgb(93,62,188)" fill-opacity="0"/><path d=" M 37.85 7.76 L 37.85 52.24 L 4.846 52.24 L 4.564 51.94 C 3.873 51.206 3.248 50.32 2.857 49.525 C 2.106 47.983 1.962 46.58 2.384 44.916 C 2.727 43.565 3.322 42.375 4.047 41.593 L 4.33 41.289 L 5.203 42.149 C 6.441 43.374 7.218 44.022 8.443 44.851 C 10.289 46.102 12.174 47.006 14.546 47.779 C 16.605 48.452 18.086 48.743 19.693 48.795 C 23.546 48.917 26.426 47.201 27.534 44.117 C 27.651 43.787 29.393 37.297 29.371 37.271 C 29.362 37.267 29.271 37.371 29.163 37.506 C 28.45 38.396 26.561 39.469 24.806 39.973 C 23.603 40.321 22.53 40.468 21.253 40.468 C 20.01 40.468 19.059 40.355 17.951 40.077 C 11.518 38.453 7.405 34.283 6.206 28.167 C 5.954 26.868 5.906 26.29 5.902 24.483 C 5.902 23.141 5.919 22.681 5.98 22.16 C 6.571 17.247 8.552 12.708 11.579 9.367 C 11.931 8.972 12.509 8.412 13.091 7.899 L 13.243 7.765 L 37.85 7.76 Z  M 24.167 12.847 C 21.861 13.068 19.802 14.415 18.273 16.708 C 16.779 18.954 15.78 22.186 15.784 24.775 C 15.793 28.436 17.639 30.986 21.105 32.124 C 22.2 32.48 22.981 32.589 24.007 32.515 C 26.743 32.32 29.328 30.734 30.996 28.219 C 32.842 25.439 33.476 21.578 32.59 18.494 C 31.812 15.783 29.936 13.911 27.23 13.151 C 26.165 12.855 25.145 12.751 24.167 12.847 L 24.167 12.847 Z " fill-rule="evenodd" fill="rgb(255,255,255)"/></g></svg>